<svg width="289" height="279" viewBox="0 0 289 279" fill="none" xmlns="http://www.w3.org/2000/svg">
<mask id="mask0_105_3735" style="mask-type:luminance" maskUnits="userSpaceOnUse" x="0" y="0" width="289" height="279">
<path fill-rule="evenodd" clip-rule="evenodd" d="M0.842773 0.0836792H288.723V278.084H0.842773V0.0836792Z" fill="white"/>
</mask>
<g mask="url(#mask0_105_3735)">
<path fill-rule="evenodd" clip-rule="evenodd" d="M144.783 0.0836792C65.2872 0.0836792 0.842773 62.3163 0.842773 139.084C0.842773 215.851 65.2872 278.084 144.783 278.084C224.279 278.084 288.723 215.851 288.723 139.084C288.723 62.3163 224.279 0.0836792 144.783 0.0836792Z" fill="#EFF3F9"/>
</g>
<path fill-rule="evenodd" clip-rule="evenodd" d="M110.531 231.443C100.192 231.443 91.8105 223.349 91.8105 213.365C91.8105 203.38 100.192 195.287 110.531 195.287C120.871 195.287 129.252 203.38 129.252 213.365C129.252 223.349 120.871 231.443 110.531 231.443Z" fill="white"/>
<path fill-rule="evenodd" clip-rule="evenodd" d="M72.6739 194.027C69.6561 194.027 67.21 191.664 67.21 188.749C67.21 185.835 69.6561 183.472 72.6739 183.472C75.6924 183.472 78.1386 185.835 78.1386 188.749C78.1386 191.664 75.6924 194.027 72.6739 194.027Z" fill="white"/>
<path fill-rule="evenodd" clip-rule="evenodd" d="M162.292 220.398C160.281 220.398 158.651 218.823 158.651 216.881C158.651 214.939 160.281 213.365 162.292 213.365C164.303 213.365 165.933 214.939 165.933 216.881C165.933 218.823 164.303 220.398 162.292 220.398Z" fill="white"/>
<path fill-rule="evenodd" clip-rule="evenodd" d="M212.682 54.3762C210.671 54.3762 209.041 52.8022 209.041 50.8602C209.041 48.9182 210.671 47.3442 212.682 47.3442C214.693 47.3442 216.323 48.9182 216.323 50.8602C216.323 52.8022 214.693 54.3762 212.682 54.3762Z" fill="white"/>
<path fill-rule="evenodd" clip-rule="evenodd" d="M196.375 86.3223H204.528V85.637C204.528 83.3238 202.586 81.4485 200.19 81.4485H176.789C174.394 81.4485 172.452 83.3238 172.452 85.637V152.434H190.639V91.8622C190.639 88.8026 193.207 86.3223 196.375 86.3223Z" fill="#E0E8F6"/>
<mask id="mask1_105_3735" style="mask-type:luminance" maskUnits="userSpaceOnUse" x="0" y="0" width="289" height="279">
<path fill-rule="evenodd" clip-rule="evenodd" d="M0.842773 278.083H288.723V0.0834961H0.842773V278.083Z" fill="white"/>
</mask>
<g mask="url(#mask1_105_3735)">
<path fill-rule="evenodd" clip-rule="evenodd" d="M147.832 152.434H167.721V94.6445H147.832V152.434Z" fill="#D0DBF0"/>
<path fill-rule="evenodd" clip-rule="evenodd" d="M197.226 78.2716H179.756C179.088 78.2716 178.547 77.7494 178.547 77.1042V70.2586C178.547 69.6142 179.088 69.0912 179.756 69.0912H197.226C197.894 69.0912 198.435 69.6142 198.435 70.2586V77.1042C198.435 77.7494 197.894 78.2716 197.226 78.2716Z" fill="#E0E8F6"/>
<path fill-rule="evenodd" clip-rule="evenodd" d="M143.524 152.434H103.034V54.0491C103.034 51.8902 105.135 50.3058 107.305 50.828L140.918 58.9254C142.45 59.2942 143.524 60.6223 143.524 62.1465V152.434Z" fill="#D0DBF0"/>
<path fill-rule="evenodd" clip-rule="evenodd" d="M85.085 152.434V118.427C85.085 115.378 87.6443 112.906 90.8026 112.906H97.2891V152.434H85.085Z" fill="#E0E8F6"/>
<path fill-rule="evenodd" clip-rule="evenodd" d="M187.055 145.961C186.216 145.961 185.536 145.305 185.536 144.495V92.8745C185.536 92.0638 186.216 91.4082 187.055 91.4082C187.893 91.4082 188.573 92.0638 188.573 92.8745V144.495C188.573 145.305 187.893 145.961 187.055 145.961Z" fill="#C0CBE2"/>
<path fill-rule="evenodd" clip-rule="evenodd" d="M178.629 145.961C177.79 145.961 177.11 145.305 177.11 144.495V92.8745C177.11 92.0638 177.79 91.4082 178.629 91.4082C179.467 91.4082 180.147 92.0638 180.147 92.8745V144.495C180.147 145.305 179.467 145.961 178.629 145.961Z" fill="#C0CBE2"/>
<path fill-rule="evenodd" clip-rule="evenodd" d="M135.845 73.6814H111.873C110.56 73.6814 109.497 72.6538 109.497 71.3867C109.497 70.1188 110.56 69.0912 111.873 69.0912H135.845C137.158 69.0912 138.221 70.1188 138.221 71.3867C138.221 72.6538 137.158 73.6814 135.845 73.6814Z" fill="#C1CAE7"/>
<path fill-rule="evenodd" clip-rule="evenodd" d="M135.845 83.7432H111.873C110.56 83.7432 109.497 82.7155 109.497 81.4485C109.497 80.1806 110.56 79.153 111.873 79.153H135.845C137.158 79.153 138.221 80.1806 138.221 81.4485C138.221 82.7155 137.158 83.7432 135.845 83.7432Z" fill="#C1CAE7"/>
<path fill-rule="evenodd" clip-rule="evenodd" d="M135.845 93.8054H111.873C110.56 93.8054 109.497 92.7778 109.497 91.5099C109.497 90.2428 110.56 89.2152 111.873 89.2152H135.845C137.158 89.2152 138.221 90.2428 138.221 91.5099C138.221 92.7778 137.158 93.8054 135.845 93.8054Z" fill="#C1CAE7"/>
<path fill-rule="evenodd" clip-rule="evenodd" d="M135.845 103.867H111.873C110.56 103.867 109.497 102.84 109.497 101.572C109.497 100.305 110.56 99.277 111.873 99.277H135.845C137.158 99.277 138.221 100.305 138.221 101.572C138.221 102.84 137.158 103.867 135.845 103.867Z" fill="#C1CAE7"/>
<path fill-rule="evenodd" clip-rule="evenodd" d="M135.845 113.929H111.873C110.56 113.929 109.497 112.901 109.497 111.634C109.497 110.366 110.56 109.339 111.873 109.339H135.845C137.158 109.339 138.221 110.366 138.221 111.634C138.221 112.901 137.158 113.929 135.845 113.929Z" fill="#C1CAE7"/>
<path fill-rule="evenodd" clip-rule="evenodd" d="M135.845 123.991H111.873C110.56 123.991 109.497 122.963 109.497 121.696C109.497 120.429 110.56 119.401 111.873 119.401H135.845C137.158 119.401 138.221 120.429 138.221 121.696C138.221 122.963 137.158 123.991 135.845 123.991Z" fill="#C1CAE7"/>
<path fill-rule="evenodd" clip-rule="evenodd" d="M135.845 134.053H111.873C110.56 134.053 109.497 133.025 109.497 131.758C109.497 130.49 110.56 129.463 111.873 129.463H135.845C137.158 129.463 138.221 130.49 138.221 131.758C138.221 133.025 137.158 134.053 135.845 134.053Z" fill="#C1CAE7"/>
<path fill-rule="evenodd" clip-rule="evenodd" d="M135.845 144.115H111.873C110.56 144.115 109.497 143.087 109.497 141.82C109.497 140.552 110.56 139.525 111.873 139.525H135.845C137.158 139.525 138.221 140.552 138.221 141.82C138.221 143.087 137.158 144.115 135.845 144.115Z" fill="#C1CAE7"/>
<path fill-rule="evenodd" clip-rule="evenodd" d="M75.7451 152.434H43.6689V91.3292C43.6689 88.5637 45.9903 86.322 48.8541 86.322H70.5608C73.4238 86.322 75.7451 88.5637 75.7451 91.3292V152.434Z" fill="#E0E8F6"/>
<path fill-rule="evenodd" clip-rule="evenodd" d="M69.672 99.4968H49.7425C48.6259 99.4968 47.7207 98.6234 47.7207 97.5451V97.4712C47.7207 96.393 48.6259 95.5188 49.7425 95.5188H69.672C70.7877 95.5188 71.693 96.393 71.693 97.4712V97.5451C71.693 98.6234 70.7877 99.4968 69.672 99.4968Z" fill="#C1CAE7"/>
<path fill-rule="evenodd" clip-rule="evenodd" d="M69.672 108.216H49.7425C48.6259 108.216 47.7207 107.343 47.7207 106.264V106.19C47.7207 105.112 48.6259 104.238 49.7425 104.238H69.672C70.7877 104.238 71.693 105.112 71.693 106.19V106.264C71.693 107.343 70.7877 108.216 69.672 108.216Z" fill="#C1CAE7"/>
<path fill-rule="evenodd" clip-rule="evenodd" d="M69.672 116.935H49.7425C48.6259 116.935 47.7207 116.062 47.7207 114.984V114.91C47.7207 113.832 48.6259 112.957 49.7425 112.957H69.672C70.7877 112.957 71.693 113.832 71.693 114.91V114.984C71.693 116.062 70.7877 116.935 69.672 116.935Z" fill="#C1CAE7"/>
<path fill-rule="evenodd" clip-rule="evenodd" d="M69.672 125.655H49.7425C48.6259 125.655 47.7207 124.781 47.7207 123.703V123.629C47.7207 122.551 48.6259 121.677 49.7425 121.677H69.672C70.7877 121.677 71.693 122.551 71.693 123.629V123.703C71.693 124.781 70.7877 125.655 69.672 125.655Z" fill="#C1CAE7"/>
<path fill-rule="evenodd" clip-rule="evenodd" d="M69.672 134.374H49.7425C48.6259 134.374 47.7207 133.5 47.7207 132.422V132.348C47.7207 131.27 48.6259 130.396 49.7425 130.396H69.672C70.7877 130.396 71.693 131.27 71.693 132.348V132.422C71.693 133.5 70.7877 134.374 69.672 134.374Z" fill="#C1CAE7"/>
<path fill-rule="evenodd" clip-rule="evenodd" d="M69.672 143.093H49.7425C48.6259 143.093 47.7207 142.219 47.7207 141.141V141.067C47.7207 139.99 48.6259 139.116 49.7425 139.116H69.672C70.7877 139.116 71.693 139.99 71.693 141.067V141.141C71.693 142.219 70.7877 143.093 69.672 143.093Z" fill="#C1CAE7"/>
<path fill-rule="evenodd" clip-rule="evenodd" d="M231.841 155.208H192.578V94.6357C192.578 91.5761 195.146 89.0966 198.314 89.0966H226.104C229.272 89.0966 231.841 91.5761 231.841 94.6357V155.208Z" fill="#E0E8F6"/>
<path fill-rule="evenodd" clip-rule="evenodd" d="M224.821 102.271H199.597C198.46 102.271 197.538 101.381 197.538 100.281C197.538 99.1839 198.46 98.2928 199.597 98.2928H224.821C225.958 98.2928 226.881 99.1839 226.881 100.281C226.881 101.381 225.958 102.271 224.821 102.271Z" fill="#C1CAE7"/>
<path fill-rule="evenodd" clip-rule="evenodd" d="M224.821 110.99H199.597C198.46 110.99 197.538 110.1 197.538 109.001C197.538 107.902 198.46 107.012 199.597 107.012H224.821C225.958 107.012 226.881 107.902 226.881 109.001C226.881 110.1 225.958 110.99 224.821 110.99Z" fill="#C1CAE7"/>
<path fill-rule="evenodd" clip-rule="evenodd" d="M224.821 119.709H199.597C198.46 119.709 197.538 118.819 197.538 117.72C197.538 116.622 198.46 115.731 199.597 115.731H224.821C225.958 115.731 226.881 116.622 226.881 117.72C226.881 118.819 225.958 119.709 224.821 119.709Z" fill="#C1CAE7"/>
<path fill-rule="evenodd" clip-rule="evenodd" d="M94.8413 89.2149C91.6988 89.2149 89.1503 86.7547 89.1503 83.72V73.6453H68.0859V82.8353H73.5973C76.8829 82.8353 79.5462 85.4072 79.5462 88.5801V152.434H82.688V116.345C82.688 112.977 85.5144 110.247 89.0014 110.247H97.2892V89.2149H94.8413Z" fill="#D0DBF0"/>
<path fill-rule="evenodd" clip-rule="evenodd" d="M194.188 63.1406H182.792C182.125 63.1406 181.583 62.6183 181.583 61.9731V56.5529C181.583 55.9078 182.125 55.3855 182.792 55.3855H194.188C194.856 55.3855 195.397 55.9078 195.397 56.5529V61.9731C195.397 62.6183 194.856 63.1406 194.188 63.1406Z" fill="#E0E8F6"/>
<path fill-rule="evenodd" clip-rule="evenodd" d="M190.639 53.2008H186.342V42.4159C186.342 41.9764 186.71 41.6196 187.166 41.6196H189.815C190.271 41.6196 190.639 41.9764 190.639 42.4159V53.2008Z" fill="#E0E8F6"/>
<path fill-rule="evenodd" clip-rule="evenodd" d="M201.297 162.604H74.924C73.1401 162.604 71.6924 161.208 71.6924 159.484C71.6924 157.761 73.1401 156.363 74.924 156.363H201.297C203.081 156.363 204.528 157.761 204.528 159.484C204.528 161.208 203.081 162.604 201.297 162.604Z" fill="#7E89A0"/>
<path fill-rule="evenodd" clip-rule="evenodd" d="M278.216 168.153C278.216 159.865 271.259 153.145 262.676 153.145H250.839H242.829H39.0111C36.5599 153.145 34.5731 151.227 34.5731 148.86C34.5731 146.493 36.5599 144.574 39.0111 144.574H40.3182V138.138H31.9214C23.3382 138.138 16.3809 144.857 16.3809 153.145C16.3809 161.434 23.3382 168.153 31.9214 168.153H247.135H258.238C260.69 168.153 262.676 170.071 262.676 172.437C262.676 174.804 260.69 176.723 258.238 176.723H249.929H228.084C226.242 176.723 224.751 178.165 224.751 179.942C224.751 181.719 226.242 183.16 228.084 183.16H262.86V183.151C271.357 183.054 278.216 176.381 278.216 168.153Z" fill="#919DB6"/>
<path fill-rule="evenodd" clip-rule="evenodd" d="M211.887 176.723H190.387C188.547 176.723 187.055 178.165 187.055 179.942C187.055 181.719 188.547 183.16 190.387 183.16H211.887C213.728 183.16 215.22 181.719 215.22 179.942C215.22 178.165 213.728 176.723 211.887 176.723Z" fill="#919DB6"/>
<path fill-rule="evenodd" clip-rule="evenodd" d="M111.576 208.043H170.65L181.882 232.147H100.76L111.576 208.043Z" fill="#DCE3ED"/>
<path fill-rule="evenodd" clip-rule="evenodd" d="M100.76 235.361H181.882V232.147H100.76V235.361Z" fill="#B3C5D0"/>
<path fill-rule="evenodd" clip-rule="evenodd" d="M159.483 223.509H134.522C132.569 223.509 130.986 221.981 130.986 220.095C130.986 218.209 132.569 216.68 134.522 216.68H159.483C161.436 216.68 163.019 218.209 163.019 220.095C163.019 221.981 161.436 223.509 159.483 223.509Z" fill="#B3C5D0"/>
<path fill-rule="evenodd" clip-rule="evenodd" d="M144.939 152.767C120.848 152.767 101.913 134.848 101.913 112.05C101.913 89.2508 120.847 71.3326 144.939 71.3326C169.03 71.3326 187.964 89.2508 187.964 112.05C187.964 134.848 169.029 152.767 144.939 152.767Z" fill="white"/>
<path fill-rule="evenodd" clip-rule="evenodd" d="M144.939 144.309C125.852 144.309 110.851 130.112 110.851 112.05C110.851 93.987 125.852 79.7905 144.939 79.7905C164.025 79.7905 179.027 93.987 179.027 112.05C179.027 130.112 164.025 144.309 144.939 144.309ZM144.939 52.5095C110.334 52.5095 82.0244 79.3012 82.0244 112.05C82.0244 156.705 144.939 222.625 144.939 222.625C144.939 222.625 207.853 156.705 207.853 112.05C207.853 79.3012 179.543 52.5095 144.939 52.5095Z" fill="#F52D56"/>
</g>
<mask id="mask2_105_3735" style="mask-type:luminance" maskUnits="userSpaceOnUse" x="82" y="52" width="63" height="171">
<path fill-rule="evenodd" clip-rule="evenodd" d="M82.0244 52.562H144.938V222.678H82.0244V52.562Z" fill="white"/>
</mask>
<g mask="url(#mask2_105_3735)">
<path fill-rule="evenodd" clip-rule="evenodd" d="M144.939 144.361C125.852 144.361 110.851 130.165 110.851 112.103C110.851 94.0395 125.852 79.8438 144.939 79.8438C164.025 79.8438 179.027 94.0395 179.027 112.103C179.027 130.165 164.025 144.361 144.939 144.361ZM144.939 52.562C110.334 52.562 82.0244 79.3545 82.0244 112.103C82.0244 156.758 144.939 222.678 144.939 222.678C144.939 222.678 207.853 156.758 207.853 112.103C207.853 79.3545 179.543 52.562 144.939 52.562Z" fill="#FC4974"/>
</g>
<path fill-rule="evenodd" clip-rule="evenodd" d="M146.897 97.0624V99.7942H149.509V98.3231C149.509 97.2794 148.632 96.4325 147.551 96.4325C147.19 96.4325 146.897 96.7145 146.897 97.0624Z" fill="#E9E3D5"/>
<path fill-rule="evenodd" clip-rule="evenodd" d="M166.082 116.766C165.77 116.469 165.611 116.054 165.611 115.63V111.561C165.611 109.925 165.06 108.332 164.043 107.023L159.343 100.971C158.357 99.7013 156.809 98.9541 155.165 98.9541H142.499C140.642 98.9541 138.923 99.9062 137.987 101.456L133.406 109.04L127.921 109.676C127.753 109.695 127.586 109.721 127.422 109.756L123.311 114.64V119.126C123.311 120.518 124.479 121.648 125.921 121.648H163.956C165.398 121.648 166.567 120.518 166.567 119.126V117.889C166.567 117.467 166.393 117.063 166.082 116.766Z" fill="#FFB545"/>
<path fill-rule="evenodd" clip-rule="evenodd" d="M166.083 116.767C165.77 116.47 165.611 116.054 165.611 115.63V114.083V111.561C165.611 109.991 165.093 108.375 164.043 107.023L159.343 100.971C158.806 100.278 158.099 99.7423 157.302 99.3969C156.577 100.273 156.525 101.545 157.255 102.484L160.29 106.392L157.607 109.04H160.371C161.805 109.04 162.991 110.15 162.999 111.535V111.561V115.63V115.648C163.001 116.107 162.464 116.381 162.085 116.105C160.885 115.232 159.392 114.713 157.777 114.713C154.738 114.713 152.136 116.546 151.089 119.126H149.508V101.475H146.897V119.126H136.472C135.462 116.902 133.163 115.344 130.491 115.344C127.82 115.344 125.521 116.902 124.512 119.126H123.311C123.311 120.518 124.479 121.648 125.921 121.648H163.956C165.398 121.648 166.567 120.518 166.567 119.126V117.937C166.567 117.501 166.404 117.072 166.083 116.767Z" fill="#FF7E40"/>
<path fill-rule="evenodd" clip-rule="evenodd" d="M141.632 112.192H144.243C144.603 112.192 144.896 111.909 144.896 111.561C144.896 111.214 144.603 110.932 144.243 110.932H141.632C141.271 110.932 140.979 111.214 140.979 111.561C140.979 111.909 141.271 112.192 141.632 112.192Z" fill="#35404A"/>
<path fill-rule="evenodd" clip-rule="evenodd" d="M152.076 112.192H154.687C155.047 112.192 155.34 111.909 155.34 111.561C155.34 111.214 155.047 110.932 154.687 110.932H152.076C151.715 110.932 151.423 111.214 151.423 111.561C151.423 111.909 151.715 112.192 152.076 112.192Z" fill="#35404A"/>
<path fill-rule="evenodd" clip-rule="evenodd" d="M140.244 102.726L136.43 109.04H146.897V101.475H142.499C141.574 101.475 140.71 101.955 140.244 102.726Z" fill="#87F8F4"/>
<path fill-rule="evenodd" clip-rule="evenodd" d="M159.995 106.014L157.254 102.484C156.761 101.848 155.988 101.476 155.165 101.476H149.508V109.04H158.429C159.51 109.04 160.387 108.193 160.387 107.149C160.387 106.74 160.25 106.341 159.995 106.014Z" fill="#87F8F4"/>
<path fill-rule="evenodd" clip-rule="evenodd" d="M163.434 111.562C162.713 111.562 162.129 112.127 162.129 112.822C162.129 113.519 162.713 114.083 163.434 114.083H165.61V111.562H163.434Z" fill="#C5324F"/>
<path fill-rule="evenodd" clip-rule="evenodd" d="M124.025 112.095C124.021 112.101 124.017 112.109 124.013 112.116C123.967 112.192 123.923 112.27 123.881 112.348C123.515 113.041 123.311 113.822 123.311 114.64H124.811C126.253 114.64 127.422 113.512 127.422 112.119V109.756C126.007 110.051 124.762 110.889 124.025 112.095Z" fill="#E9E3D5"/>
<path fill-rule="evenodd" clip-rule="evenodd" d="M130.49 126.06C127.971 126.06 125.921 124.081 125.921 121.648C125.921 119.214 127.971 117.235 130.49 117.235C133.01 117.235 135.06 119.214 135.06 121.648C135.06 124.081 133.01 126.06 130.49 126.06Z" fill="#596775"/>
<path fill-rule="evenodd" clip-rule="evenodd" d="M131.425 117.328C130.889 118.283 131.039 119.503 131.875 120.31L129.106 122.985C128.269 122.177 127.007 122.032 126.018 122.55C126.45 124.551 128.291 126.06 130.491 126.06C133.01 126.06 135.06 124.08 135.06 121.647C135.06 119.523 133.497 117.746 131.425 117.328Z" fill="#35404A"/>
<path fill-rule="evenodd" clip-rule="evenodd" d="M132.449 121.648C132.449 122.692 131.572 123.539 130.49 123.539C129.409 123.539 128.532 122.692 128.532 121.648C128.532 120.603 129.409 119.756 130.49 119.756C131.572 119.756 132.449 120.603 132.449 121.648Z" fill="#E9E3D5"/>
<path fill-rule="evenodd" clip-rule="evenodd" d="M157.777 126.06C155.257 126.06 153.207 124.081 153.207 121.648C153.207 119.214 155.257 117.235 157.777 117.235C160.296 117.235 162.346 119.214 162.346 121.648C162.346 124.081 160.296 126.06 157.777 126.06Z" fill="#596775"/>
<path fill-rule="evenodd" clip-rule="evenodd" d="M158.711 117.328C158.175 118.283 158.325 119.503 159.161 120.31L156.392 122.985C155.555 122.177 154.293 122.032 153.304 122.55C153.736 124.551 155.577 126.06 157.777 126.06C160.296 126.06 162.346 124.08 162.346 121.647C162.346 119.523 160.784 117.746 158.711 117.328Z" fill="#35404A"/>
<path fill-rule="evenodd" clip-rule="evenodd" d="M159.735 121.648C159.735 122.692 158.858 123.539 157.776 123.539C156.695 123.539 155.818 122.692 155.818 121.648C155.818 120.603 156.695 119.756 157.776 119.756C158.858 119.756 159.735 120.603 159.735 121.648Z" fill="#E9E3D5"/>
</svg>
