<svg width="1169" height="238" viewBox="0 0 1169 238" fill="none" xmlns="http://www.w3.org/2000/svg">
<path fill-rule="evenodd" clip-rule="evenodd" d="M199.509 0.968872V19.5831H206.346V92.019H215.327V69.7118H220.057V64.3236L230.403 69.7118H232.937V56.3112L245.317 36.8885L257.695 56.3112V101.882H263.506V110.738H272.081V74.5951H279.187L278.891 59.5989H287.114V55.3038H295.446L296.728 29.3308L298.01 55.3038H299.612V59.5989H301.775L300.982 99.7604H302.517V82.042L319.744 69.7118V92.019H336.972V74.5951H347.607V64.3236L365.824 79.9119V64.3236L390.248 85.2242V237.969H372.032H365.824H348.383H347.607H336.972H319.744H302.517H298.947H283.492H281.719H273.077H272.081H257.695H248.319H232.937H215.327H206.346H191.125H184.618H169.355H165.216H151.201H143.57H131.242H126.776H120.418H109.595H106.816H95.993H90.1523H85.1692H65.7285H57.6738H47.1977H36.7203H28.6546H26.2441H14.5428H11.4273H0.884564V89.1071H9.18093L8.59933 59.5989H26.2441V16.8844H36.7203V25.9641H47.1977V34.2772H57.6738V77.1359H65.7285V57.2092H68.5965V55.0116H87.2837V57.2092H90.1523V98.7599H95.993V45.3587H98.8623V43.1611H117.549V45.3587H120.418V76.1096H126.776V57.2092H129.644V55.0116H148.331V57.2092H151.201V64.3236L157.197 72.1508V85.2735H165.216V77.1359H169.355V57.2092H184.618V45.4118L191.125 38.6831V19.5831H197.963V0.968872H199.509Z" fill="white" fill-opacity="0.2"/>
<path fill-rule="evenodd" clip-rule="evenodd" d="M262.938 102.969V113.572H258.556V154.833H252.8V142.126H249.768V139.057L243.137 142.126H241.512V134.493L233.577 123.429L225.643 134.493V160.451H221.919V165.496H216.423V144.908H211.868L212.058 136.366H206.787V133.919H201.447L200.625 119.124L199.804 133.919H198.776V136.366H197.39L197.898 159.243H196.914V149.15L185.872 142.126V154.833H174.83V144.908H168.014V139.057L156.338 147.936V139.057L140.683 150.962V237.969H152.358H156.338H167.516H168.014H174.83H185.872H196.914H199.203H209.109H210.245H215.784H216.423H225.643H231.653H241.512H252.8H258.556H268.312H272.483H282.266H284.918H293.902H298.793H306.694H309.557H313.632H320.569H322.35H329.288H333.031H336.225H348.686H353.849H360.563H367.279H372.449H373.994H381.494H383.491H390.248V153.174H384.93L385.303 136.366H373.994V112.035H367.279V117.207H360.563V121.942H353.849V146.355H348.686V135.004H346.848V133.753H334.87V135.004H333.031V158.673H329.288V128.254H327.448V127.002H315.471V128.254H313.632V145.771H309.557V135.004H307.718V133.753H295.741V135.004H293.902V139.057L290.058 143.516V150.991H284.918V146.355H282.266V135.004H272.483V128.284L268.312 124.452V113.572H263.929V102.969H262.938Z" fill="white" fill-opacity="0.2"/>
<path fill-rule="evenodd" clip-rule="evenodd" d="M41.8997 102.969V113.572H38.4992V154.833H34.0328V142.126H31.6804V139.057L26.5348 142.126H25.2743V134.493L19.1176 123.429L12.9612 134.493V160.451H10.0712L9.39935 138.569H0.894028C0.894028 138.569 0.929342 143.906 1.04405 237.969H140.684V153.174H136.557L136.847 136.366H128.071V112.035H122.861V117.207H117.65V121.942H112.44V146.355H108.434V135.004H107.008V133.753H97.7138V135.004H96.2871V158.673H93.3823V128.254H91.9553V127.002H82.6617V128.254H81.2347V145.771H78.0728V135.004H76.6461V133.753H67.3525V135.004H65.9252V139.057L62.9429 143.516V150.991H58.9547V146.355H56.8965V135.004H49.3056V128.284L46.0695 124.452V113.572H42.6688V102.969H41.8997Z" fill="white" fill-opacity="0.2"/>
<path fill-rule="evenodd" clip-rule="evenodd" d="M588.872 0.968872V19.5831H595.709V92.019H604.69V69.7118H609.42V64.3236L619.766 69.7118H622.301V56.3112L634.68 36.8885L647.059 56.3112V101.882H652.87V110.738H661.444V74.5951H668.55L668.254 59.5989H676.477V55.3038H684.809L686.091 29.3308L687.373 55.3038H688.975V59.5989H691.138L690.345 99.7604H691.88V82.042L709.108 69.7118V92.019H726.336V74.5951H736.97V64.3236L755.187 79.9119V64.3236L779.611 85.2242V237.969H761.395H755.187H737.746H736.97H726.336H709.108H691.88H688.31H672.855H671.083H662.44H661.444H647.059H637.682H622.301H604.69H595.709H580.488H573.981H558.718H554.58H540.564H532.933H520.605H516.139H509.781H498.958H496.179H485.356H479.516H474.532H455.092H447.037H436.561H426.084H418.018H415.607H403.906H400.791H390.248V89.1071H398.544L397.963 59.5989H415.607V16.8844H426.084V25.9641H436.561V34.2772H447.037V77.1359H455.092V57.2092H457.96V55.0116H476.647V57.2092H479.516V98.7599H485.356V45.3587H488.226V43.1611H506.912V45.3587H509.781V76.1096H516.139V57.2092H519.008V55.0116H537.694V57.2092H540.564V64.3236L546.561 72.1508V85.2735H554.58V77.1359H558.718V57.2092H573.981V45.4118L580.488 38.6831V19.5831H587.326V0.968872H588.872Z" fill="white" fill-opacity="0.2"/>
<path fill-rule="evenodd" clip-rule="evenodd" d="M652.302 102.969V113.572H647.919V154.833H642.163V142.126H639.131V139.057L632.5 142.126H630.875V134.493L622.941 123.429L615.006 134.493V160.451H611.282V165.496H605.786V144.908H601.232L601.421 136.366H596.15V133.919H590.81L589.988 119.124L589.167 133.919H588.14V136.366H586.754L587.261 159.243H586.278V149.15L575.236 142.126V154.833H564.193V144.908H557.377V139.057L545.701 147.936V139.057L530.046 150.962V237.969H541.722H545.701H556.88H557.377H564.193H575.236H586.278H588.566H598.472H599.608H605.147H605.786H615.006H621.016H630.875H642.163H647.919H657.675H661.846H671.629H674.282H683.265H688.156H696.058H698.92H702.995H709.933H711.714H718.651H722.394H725.588H738.049H743.212H749.927H756.642H761.812H763.357H770.857H772.854H779.611V153.174H774.294L774.666 136.366H763.357V112.035H756.642V117.207H749.927V121.942H743.212V146.355H738.049V135.004H736.211V133.753H724.233V135.004H722.394V158.673H718.651V128.254H716.812V127.002H704.834V128.254H702.995V145.771H698.92V135.004H697.082V133.753H685.104V135.004H683.265V139.057L679.421 143.516V150.991H674.282V146.355H671.629V135.004H661.846V128.284L657.675 124.452V113.572H653.293V102.969H652.302Z" fill="white" fill-opacity="0.2"/>
<path fill-rule="evenodd" clip-rule="evenodd" d="M431.263 102.969V113.572H427.863V154.833H423.396V142.126H421.044V139.057L415.898 142.126H414.638V134.493L408.481 123.429L402.324 134.493V160.451H399.434L398.763 138.569H390.257C390.257 138.569 390.293 143.906 390.407 237.969H530.047V153.174H525.921L526.21 136.366H517.435V112.035H512.224V117.207H507.013V121.942H501.803V146.355H497.797V135.004H496.371V133.753H487.077V135.004H485.65V158.673H482.746V128.254H481.319V127.002H472.025V128.254H470.598V145.771H467.436V135.004H466.009V133.753H456.716V135.004H455.288V139.057L452.306 143.516V150.991H448.318V146.355H446.26V135.004H438.669V128.284L435.433 124.452V113.572H432.032V102.969H431.263Z" fill="white" fill-opacity="0.2"/>
<path fill-rule="evenodd" clip-rule="evenodd" d="M978.236 0.968872V19.5831H985.073V92.019H994.053V69.7118H998.783V64.3236L1009.13 69.7118H1011.66V56.3112L1024.04 36.8885L1036.42 56.3112V101.882H1042.23V110.738H1050.81V74.5951H1057.91L1057.62 59.5989H1065.84V55.3038H1074.17L1075.45 29.3308L1076.74 55.3038H1078.34V59.5989H1080.5L1079.71 99.7604H1081.24V82.042L1098.47 69.7118V92.019H1115.7V74.5951H1126.33V64.3236L1144.55 79.9119V64.3236L1168.97 85.2242V237.969H1150.76H1144.55H1127.11H1126.33H1115.7H1098.47H1081.24H1077.67H1062.22H1060.45H1051.8H1050.81H1036.42H1027.05H1011.66H994.053H985.073H969.851H963.344H948.082H943.943H929.927H922.296H909.968H905.502H899.145H888.322H885.543H874.72H868.879H863.896H844.455H836.4H825.924H815.447H807.381H804.971H793.269H790.154H779.611V89.1071H787.907L787.326 59.5989H804.971V16.8844H815.447V25.9641H825.924V34.2772H836.4V77.1359H844.455V57.2092H847.323V55.0116H866.01V57.2092H868.879V98.7599H874.72V45.3587H877.589V43.1611H896.275V45.3587H899.145V76.1096H905.502V57.2092H908.371V55.0116H927.058V57.2092H929.927V64.3236L935.924 72.1508V85.2735H943.943V77.1359H948.082V57.2092H963.344V45.4118L969.851 38.6831V19.5831H976.689V0.968872H978.236Z" fill="white" fill-opacity="0.2"/>
<path fill-rule="evenodd" clip-rule="evenodd" d="M1041.66 102.969V113.572H1037.28V154.833H1031.53V142.126H1028.49V139.057L1021.86 142.126H1020.24V134.493L1012.3 123.429L1004.37 134.493V160.451H1000.65V165.496H995.149V144.908H990.595L990.785 136.366H985.514V133.919H980.173L979.352 119.124L978.53 133.919H977.503V136.366H976.117L976.625 159.243H975.641V149.15L964.599 142.126V154.833H953.557V144.908H946.74V139.057L935.064 147.936V139.057L919.409 150.962V237.969H931.085H935.064H946.243H946.74H953.557H964.599H975.641H977.93H987.835H988.972H994.511H995.149H1004.37H1010.38H1020.24H1031.53H1037.28H1047.04H1051.21H1060.99H1063.64H1072.63H1077.52H1085.42H1088.28H1092.36H1099.3H1101.08H1108.01H1111.76H1114.95H1127.41H1132.58H1139.29H1146.01H1151.18H1152.72H1160.22H1162.22H1168.97V153.174H1163.66L1164.03 136.366H1152.72V112.035H1146.01V117.207H1139.29V121.942H1132.58V146.355H1127.41V135.004H1125.57V133.753H1113.6V135.004H1111.76V158.673H1108.01V128.254H1106.18V127.002H1094.2V128.254H1092.36V145.771H1088.28V135.004H1086.44V133.753H1074.47V135.004H1072.63V139.057L1068.78 143.516V150.991H1063.64V146.355H1060.99V135.004H1051.21V128.284L1047.04 124.452V113.572H1042.66V102.969H1041.66Z" fill="white" fill-opacity="0.2"/>
<path fill-rule="evenodd" clip-rule="evenodd" d="M820.626 102.969V113.572H817.226V154.833H812.759V142.126H810.407V139.057L805.261 142.126H804.001V134.493L797.844 123.429L791.688 134.493V160.451H788.798L788.126 138.569H779.621C779.621 138.569 779.656 143.906 779.771 237.969H919.41V153.174H915.284L915.573 136.366H906.798V112.035H901.588V117.207H896.377V121.942H891.167V146.355H887.161V135.004H885.734V133.753H876.44V135.004H875.014V158.673H872.109V128.254H870.682V127.002H861.388V128.254H859.961V145.771H856.799V135.004H855.373V133.753H846.079V135.004H844.652V139.057L841.669 143.516V150.991H837.681V146.355H835.623V135.004H828.032V128.284L824.796 124.452V113.572H821.395V102.969H820.626Z" fill="white" fill-opacity="0.2"/>
</svg>
