<svg width="390" height="238" viewBox="0 0 390 238" fill="none" xmlns="http://www.w3.org/2000/svg">
<path fill-rule="evenodd" clip-rule="evenodd" d="M198.872 0.968872V19.5831H205.709V92.019H214.69V69.7118H219.42V64.3236L229.766 69.7118H232.301V56.3112L244.68 36.8885L257.059 56.3112V101.882H262.87V110.738H271.444V74.5951H278.55L278.254 59.5989H286.477V55.3038H294.809L296.091 29.3308L297.373 55.3038H298.975V59.5989H301.138L300.345 99.7604H301.88V82.042L319.108 69.7118V92.019H336.336V74.5951H346.97V64.3236L365.187 79.9119V64.3236L389.611 85.2242V237.969H371.395H365.187H347.746H346.97H336.336H319.108H301.88H298.31H282.855H281.083H272.44H271.444H257.059H247.682H232.301H214.69H205.709H190.488H183.981H168.718H164.58H150.564H142.933H130.605H126.139H119.781H108.958H106.179H95.3563H89.5156H84.5325H65.0918H57.0371H46.561H36.0835H28.0179H25.6074H13.906H10.7905H0.247846V89.1071H8.54422L7.96261 59.5989H25.6074V16.8844H36.0835V25.9641H46.561V34.2772H57.0371V77.1359H65.0918V57.2092H67.9598V55.0116H86.647V57.2092H89.5156V98.7599H95.3563V45.3587H98.2256V43.1611H116.912V45.3587H119.781V76.1096H126.139V57.2092H129.008V55.0116H147.694V57.2092H150.564V64.3236L156.561 72.1508V85.2735H164.58V77.1359H168.718V57.2092H183.981V45.4118L190.488 38.6831V19.5831H197.326V0.968872H198.872Z" fill="white" fill-opacity="0.2"/>
<path fill-rule="evenodd" clip-rule="evenodd" d="M262.302 102.969V113.572H257.919V154.833H252.163V142.126H249.131V139.057L242.5 142.126H240.875V134.493L232.941 123.429L225.006 134.493V160.451H221.282V165.496H215.786V144.908H211.232L211.421 136.366H206.15V133.919H200.81L199.988 119.124L199.167 133.919H198.14V136.366H196.754L197.261 159.243H196.278V149.15L185.236 142.126V154.833H174.193V144.908H167.377V139.057L155.701 147.936V139.057L140.046 150.962V237.969H151.722H155.701H166.88H167.377H174.193H185.236H196.278H198.566H208.472H209.608H215.147H215.786H225.006H231.016H240.875H252.163H257.919H267.675H271.846H281.629H284.282H293.265H298.156H306.058H308.92H312.995H319.933H321.714H328.651H332.394H335.588H348.049H353.212H359.927H366.642H371.812H373.357H380.857H382.854H389.611V153.174H384.294L384.666 136.366H373.357V112.035H366.642V117.207H359.927V121.942H353.212V146.355H348.049V135.004H346.211V133.753H334.233V135.004H332.394V158.673H328.651V128.254H326.812V127.002H314.834V128.254H312.995V145.771H308.92V135.004H307.082V133.753H295.104V135.004H293.265V139.057L289.421 143.516V150.991H284.282V146.355H281.629V135.004H271.846V128.284L267.675 124.452V113.572H263.293V102.969H262.302Z" fill="white" fill-opacity="0.2"/>
<path fill-rule="evenodd" clip-rule="evenodd" d="M41.2629 102.969V113.572H37.8625V154.833H33.396V142.126H31.0437V139.057L25.8981 142.126H24.6376V134.493L18.4809 123.429L12.3245 134.493V160.451H9.43445L8.76263 138.569H0.257309C0.257309 138.569 0.292623 143.906 0.407333 237.969H140.047V153.174H135.921L136.21 136.366H127.435V112.035H122.224V117.207H117.013V121.942H111.803V146.355H107.797V135.004H106.371V133.753H97.0771V135.004H95.6504V158.673H92.7456V128.254H91.3186V127.002H82.025V128.254H80.598V145.771H77.4361V135.004H76.0094V133.753H66.7158V135.004H65.2885V139.057L62.3062 143.516V150.991H58.318V146.355H56.2597V135.004H48.6689V128.284L45.4328 124.452V113.572H42.032V102.969H41.2629Z" fill="white" fill-opacity="0.2"/>
</svg>
