<svg width="31" height="31" viewBox="0 0 31 31" fill="none" xmlns="http://www.w3.org/2000/svg">
<path d="M19.3702 18.1704C22.8602 18.1704 25.6895 15.3527 25.6895 11.8769C25.6895 8.40116 22.8602 5.5835 19.3702 5.5835C15.8802 5.5835 13.0509 8.40116 13.0509 11.8769C13.0509 13.4869 13.7857 14.6578 13.7857 14.6578L6.14386 22.2684C5.80095 22.6099 5.32089 23.4978 6.14386 24.3174L7.02561 25.1956C7.36851 25.4883 8.23064 25.8981 8.93605 25.1956L9.96476 24.1711C10.9935 25.1956 12.1692 24.6102 12.61 24.0247C13.3448 23.0002 12.4631 21.9757 12.4631 21.9757L12.757 21.683C14.1678 23.088 15.4023 22.2684 15.8431 21.683C16.5779 20.6585 15.8431 19.634 15.8431 19.634C15.5492 19.0485 14.9614 19.0485 15.6962 18.3168L16.578 17.4386C17.2834 18.024 18.7334 18.1704 19.3702 18.1704Z" stroke="#50B6BB" stroke-width="1.5" stroke-linejoin="round"/>
<path d="M21.5748 11.877C21.5748 13.0895 20.5879 14.0724 19.3704 14.0724C18.153 14.0724 17.166 13.0895 17.166 11.877C17.166 10.6645 18.153 9.68164 19.3704 9.68164C20.5879 9.68164 21.5748 10.6645 21.5748 11.877Z" stroke="#50B6BB" stroke-width="1.5"/>
</svg>
