<svg width="31" height="31" viewBox="0 0 31 31" fill="none" xmlns="http://www.w3.org/2000/svg">
<path d="M5.68945 15.0835C5.68945 11.3123 5.68945 9.42664 6.86103 8.25507C8.0326 7.0835 9.91822 7.0835 13.6895 7.0835H17.6895C21.4607 7.0835 23.3463 7.0835 24.5179 8.25507C25.6895 9.42664 25.6895 11.3123 25.6895 15.0835C25.6895 18.8547 25.6895 20.7404 24.5179 21.9119C23.3463 23.0835 21.4607 23.0835 17.6895 23.0835H13.6895C9.91822 23.0835 8.0326 23.0835 6.86103 21.9119C5.68945 20.7404 5.68945 18.8547 5.68945 15.0835Z" stroke="#50B6BB" stroke-width="1.5"/>
<path d="M9.68945 11.0835L11.8483 12.8826C13.685 14.4131 14.6033 15.1784 15.6895 15.1784C16.7756 15.1784 17.6939 14.4131 19.5306 12.8826L21.6895 11.0835" stroke="#50B6BB" stroke-width="1.5" stroke-linecap="round"/>
</svg>
