<svg width="20" height="25" viewBox="0 0 20 25" fill="none" xmlns="http://www.w3.org/2000/svg">
<path fill-rule="evenodd" clip-rule="evenodd" d="M9.84616 24.6249C10.819 24.6249 15.4519 19.0065 16.5943 17.2168C18.3503 14.4657 19.4345 12.8381 19.4345 9.80101C19.4345 4.68726 15.1417 0.541748 9.84616 0.541748C4.55066 0.541748 0.257812 4.68726 0.257812 9.80101C0.257812 12.8539 1.2624 14.4706 3.01259 17.2168C4.23243 19.1308 8.87328 24.6249 9.84616 24.6249ZM9.84616 14.4306C12.4939 14.4306 14.6403 12.3579 14.6403 9.80101C14.6403 7.24413 12.4939 5.17138 9.84616 5.17138C7.19841 5.17138 5.05198 7.24413 5.05198 9.80101C5.05198 12.3579 7.19841 14.4306 9.84616 14.4306Z" fill="#F52D56"/>
</svg>
