<svg width="227" height="223" viewBox="0 0 227 223" fill="none" xmlns="http://www.w3.org/2000/svg">
<g filter="url(#filter0_f_285_633)">
<rect x="77.5752" y="77.5304" width="71.9101" height="67.7154" rx="33.8577" fill="#FFEF9A"/>
</g>
<g filter="url(#filter1_i_285_633)">
<path d="M144.692 116.781C144.692 133.991 130.741 147.942 113.531 147.942C96.3214 147.942 82.3701 133.991 82.3701 116.781C82.3701 99.5715 96.3214 85.6202 113.531 85.6202C130.741 85.6202 144.692 99.5715 144.692 116.781Z" fill="url(#paint0_linear_285_633)"/>
</g>
<g filter="url(#filter2_b_285_633)">
<g filter="url(#filter3_i_285_633)">
<path d="M131.306 132.85C131.522 131.62 131.635 130.355 131.635 129.064C131.635 116.985 121.752 107.193 109.561 107.193C100.497 107.193 92.7099 112.605 89.3103 120.345C86.5562 117.989 82.9824 116.566 79.0769 116.566C70.3688 116.566 63.3095 123.638 63.3095 132.362C63.3095 132.848 63.3313 133.328 63.3742 133.803C59.1857 135.836 56.3017 140.101 56.3017 145.033C56.3017 151.935 61.9492 157.53 68.9157 157.53H128.482C135.448 157.53 141.096 151.935 141.096 145.033C141.096 139.093 136.913 134.12 131.306 132.85Z" fill="url(#paint1_linear_285_633)"/>
</g>
<g filter="url(#filter4_i_285_633)">
<path d="M131.306 132.85C131.522 131.62 131.635 130.355 131.635 129.064C131.635 116.985 121.752 107.193 109.561 107.193C100.497 107.193 92.7099 112.605 89.3103 120.345C86.5562 117.989 82.9824 116.566 79.0769 116.566C70.3688 116.566 63.3095 123.638 63.3095 132.362C63.3095 132.848 63.3313 133.328 63.3742 133.803C59.1857 135.836 56.3017 140.101 56.3017 145.033C56.3017 151.935 61.9492 157.53 68.9157 157.53H128.482C135.448 157.53 141.096 151.935 141.096 145.033C141.096 139.093 136.913 134.12 131.306 132.85Z" fill="url(#paint2_linear_285_633)"/>
</g>
</g>
<defs>
<filter id="filter0_f_285_633" x="0.575195" y="0.530396" width="225.91" height="221.715" filterUnits="userSpaceOnUse" color-interpolation-filters="sRGB">
<feFlood flood-opacity="0" result="BackgroundImageFix"/>
<feBlend mode="normal" in="SourceGraphic" in2="BackgroundImageFix" result="shape"/>
<feGaussianBlur stdDeviation="38.5" result="effect1_foregroundBlur_285_633"/>
</filter>
<filter id="filter1_i_285_633" x="82.3701" y="85.6202" width="62.3223" height="67.3221" filterUnits="userSpaceOnUse" color-interpolation-filters="sRGB">
<feFlood flood-opacity="0" result="BackgroundImageFix"/>
<feBlend mode="normal" in="SourceGraphic" in2="BackgroundImageFix" result="shape"/>
<feColorMatrix in="SourceAlpha" type="matrix" values="0 0 0 0 0 0 0 0 0 0 0 0 0 0 0 0 0 0 127 0" result="hardAlpha"/>
<feOffset dy="5"/>
<feGaussianBlur stdDeviation="9"/>
<feComposite in2="hardAlpha" operator="arithmetic" k2="-1" k3="1"/>
<feColorMatrix type="matrix" values="0 0 0 0 1 0 0 0 0 1 0 0 0 0 1 0 0 0 0.81 0"/>
<feBlend mode="normal" in2="shape" result="effect1_innerShadow_285_633"/>
</filter>
<filter id="filter2_b_285_633" x="29.3018" y="80.1934" width="138.794" height="104.337" filterUnits="userSpaceOnUse" color-interpolation-filters="sRGB">
<feFlood flood-opacity="0" result="BackgroundImageFix"/>
<feGaussianBlur in="BackgroundImageFix" stdDeviation="13.5"/>
<feComposite in2="SourceAlpha" operator="in" result="effect1_backgroundBlur_285_633"/>
<feBlend mode="normal" in="SourceGraphic" in2="effect1_backgroundBlur_285_633" result="shape"/>
</filter>
<filter id="filter3_i_285_633" x="56.3018" y="107.193" width="84.7939" height="60.337" filterUnits="userSpaceOnUse" color-interpolation-filters="sRGB">
<feFlood flood-opacity="0" result="BackgroundImageFix"/>
<feBlend mode="normal" in="SourceGraphic" in2="BackgroundImageFix" result="shape"/>
<feColorMatrix in="SourceAlpha" type="matrix" values="0 0 0 0 0 0 0 0 0 0 0 0 0 0 0 0 0 0 127 0" result="hardAlpha"/>
<feOffset dy="11"/>
<feGaussianBlur stdDeviation="5"/>
<feComposite in2="hardAlpha" operator="arithmetic" k2="-1" k3="1"/>
<feColorMatrix type="matrix" values="0 0 0 0 1 0 0 0 0 1 0 0 0 0 1 0 0 0 1 0"/>
<feBlend mode="normal" in2="shape" result="effect1_innerShadow_285_633"/>
</filter>
<filter id="filter4_i_285_633" x="56.3018" y="107.193" width="84.7939" height="60.337" filterUnits="userSpaceOnUse" color-interpolation-filters="sRGB">
<feFlood flood-opacity="0" result="BackgroundImageFix"/>
<feBlend mode="normal" in="SourceGraphic" in2="BackgroundImageFix" result="shape"/>
<feColorMatrix in="SourceAlpha" type="matrix" values="0 0 0 0 0 0 0 0 0 0 0 0 0 0 0 0 0 0 127 0" result="hardAlpha"/>
<feOffset dy="11"/>
<feGaussianBlur stdDeviation="5"/>
<feComposite in2="hardAlpha" operator="arithmetic" k2="-1" k3="1"/>
<feColorMatrix type="matrix" values="0 0 0 0 1 0 0 0 0 1 0 0 0 0 1 0 0 0 1 0"/>
<feBlend mode="normal" in2="shape" result="effect1_innerShadow_285_633"/>
</filter>
<linearGradient id="paint0_linear_285_633" x1="108.798" y1="133.742" x2="134.437" y2="88.7758" gradientUnits="userSpaceOnUse">
<stop stop-color="#FF9900"/>
<stop offset="1" stop-color="#FFEE94"/>
</linearGradient>
<linearGradient id="paint1_linear_285_633" x1="61.6949" y1="153.036" x2="147.238" y2="89.066" gradientUnits="userSpaceOnUse">
<stop stop-color="white"/>
<stop offset="1" stop-color="white" stop-opacity="0.58"/>
</linearGradient>
<linearGradient id="paint2_linear_285_633" x1="61.6949" y1="153.036" x2="147.238" y2="89.066" gradientUnits="userSpaceOnUse">
<stop stop-color="white"/>
<stop offset="1" stop-color="white" stop-opacity="0.58"/>
</linearGradient>
</defs>
</svg>
