<svg width="100" height="97" viewBox="0 0 100 97" fill="none" xmlns="http://www.w3.org/2000/svg">
<path fill-rule="evenodd" clip-rule="evenodd" d="M50.2821 96.0835C77.7341 96.0835 99.9881 74.5932 99.9881 48.0835C99.9881 21.5738 77.7341 0.0834961 50.2821 0.0834961C22.8302 0.0834961 0.576172 21.5738 0.576172 48.0835C0.576172 74.5932 22.8302 96.0835 50.2821 96.0835ZM81.4437 37.7106L44.5267 73.1802C43.2729 74.3846 41.2405 74.3846 39.9867 73.18L19.1205 53.132C17.867 51.9275 17.867 49.9746 19.1205 48.7701L23.6603 44.4083C24.9141 43.2039 26.9468 43.2039 28.2003 44.4083L42.2567 57.9136L72.3639 28.987C73.6177 27.7823 75.6504 27.7823 76.9039 28.987L81.4437 33.3488C82.6973 34.5532 82.6973 36.5061 81.4437 37.7106Z" fill="#50B6BB"/>
</svg>
