<svg width="224" height="166" viewBox="0 0 224 166" fill="none" xmlns="http://www.w3.org/2000/svg">
<g filter="url(#filter0_di_285_660)">
<path d="M91.929 87.4434C88.4703 91.9804 83.6282 101.054 91.929 101.054C100.23 101.054 95.3877 91.9804 91.929 87.4434Z" fill="#00BCFF"/>
</g>
<g filter="url(#filter1_di_285_660)">
<path d="M111.374 94.1099C107.916 98.6469 103.073 107.721 111.374 107.721C119.675 107.721 114.833 98.6469 111.374 94.1099Z" fill="#00BCFF"/>
</g>
<g filter="url(#filter2_di_285_660)">
<path d="M129.429 87.4434C125.97 91.9804 121.128 101.054 129.429 101.054C137.73 101.054 132.888 91.9804 129.429 87.4434Z" fill="#00BCFF"/>
</g>
<g filter="url(#filter3_f_285_660)">
<rect x="78.7354" y="78.2765" width="66.6667" height="9.72222" rx="4.86111" fill="#00BCFF"/>
</g>
<g filter="url(#filter4_b_285_660)">
<g filter="url(#filter5_i_285_660)">
<path d="M145.332 54.1122C145.555 52.8472 145.671 51.546 145.671 50.2178C145.671 37.7931 135.505 27.7209 122.964 27.7209C113.642 27.7209 105.631 33.2875 102.134 41.2489C99.301 38.8256 95.6248 37.3625 91.6076 37.3625C82.6501 37.3625 75.3886 44.6368 75.3886 53.6102C75.3886 54.1099 75.4111 54.6043 75.4552 55.0925C71.1468 57.1833 68.1801 61.5705 68.1801 66.6441C68.1801 73.744 73.9893 79.4995 81.1553 79.4995H142.427C149.593 79.4995 155.402 73.744 155.402 66.6441C155.402 60.5337 151.099 55.4191 145.332 54.1122Z" fill="url(#paint0_linear_285_660)"/>
</g>
<g filter="url(#filter6_i_285_660)">
<path d="M145.332 54.1122C145.555 52.8472 145.671 51.546 145.671 50.2178C145.671 37.7931 135.505 27.7209 122.964 27.7209C113.642 27.7209 105.631 33.2875 102.134 41.2489C99.301 38.8256 95.6248 37.3625 91.6076 37.3625C82.6501 37.3625 75.3886 44.6368 75.3886 53.6102C75.3886 54.1099 75.4111 54.6043 75.4552 55.0925C71.1468 57.1833 68.1801 61.5705 68.1801 66.6441C68.1801 73.744 73.9893 79.4995 81.1553 79.4995H142.427C149.593 79.4995 155.402 73.744 155.402 66.6441C155.402 60.5337 151.099 55.4191 145.332 54.1122Z" fill="url(#paint1_linear_285_660)"/>
</g>
</g>
<defs>
<filter id="filter0_di_285_660" x="68.3457" y="87.4434" width="47.167" height="52.6111" filterUnits="userSpaceOnUse" color-interpolation-filters="sRGB">
<feFlood flood-opacity="0" result="BackgroundImageFix"/>
<feColorMatrix in="SourceAlpha" type="matrix" values="0 0 0 0 0 0 0 0 0 0 0 0 0 0 0 0 0 0 127 0" result="hardAlpha"/>
<feOffset dy="20"/>
<feGaussianBlur stdDeviation="9.5"/>
<feComposite in2="hardAlpha" operator="out"/>
<feColorMatrix type="matrix" values="0 0 0 0 0.283785 0 0 0 0 0.178889 0 0 0 0 0.933333 0 0 0 1 0"/>
<feBlend mode="normal" in2="BackgroundImageFix" result="effect1_dropShadow_285_660"/>
<feBlend mode="normal" in="SourceGraphic" in2="effect1_dropShadow_285_660" result="shape"/>
<feColorMatrix in="SourceAlpha" type="matrix" values="0 0 0 0 0 0 0 0 0 0 0 0 0 0 0 0 0 0 127 0" result="hardAlpha"/>
<feOffset dy="9"/>
<feGaussianBlur stdDeviation="1.5"/>
<feComposite in2="hardAlpha" operator="arithmetic" k2="-1" k3="1"/>
<feColorMatrix type="matrix" values="0 0 0 0 1 0 0 0 0 1 0 0 0 0 1 0 0 0 0.21 0"/>
<feBlend mode="normal" in2="shape" result="effect2_innerShadow_285_660"/>
</filter>
<filter id="filter1_di_285_660" x="87.791" y="94.1099" width="47.167" height="52.6111" filterUnits="userSpaceOnUse" color-interpolation-filters="sRGB">
<feFlood flood-opacity="0" result="BackgroundImageFix"/>
<feColorMatrix in="SourceAlpha" type="matrix" values="0 0 0 0 0 0 0 0 0 0 0 0 0 0 0 0 0 0 127 0" result="hardAlpha"/>
<feOffset dy="20"/>
<feGaussianBlur stdDeviation="9.5"/>
<feComposite in2="hardAlpha" operator="out"/>
<feColorMatrix type="matrix" values="0 0 0 0 0.283785 0 0 0 0 0.178889 0 0 0 0 0.933333 0 0 0 1 0"/>
<feBlend mode="normal" in2="BackgroundImageFix" result="effect1_dropShadow_285_660"/>
<feBlend mode="normal" in="SourceGraphic" in2="effect1_dropShadow_285_660" result="shape"/>
<feColorMatrix in="SourceAlpha" type="matrix" values="0 0 0 0 0 0 0 0 0 0 0 0 0 0 0 0 0 0 127 0" result="hardAlpha"/>
<feOffset dy="9"/>
<feGaussianBlur stdDeviation="1.5"/>
<feComposite in2="hardAlpha" operator="arithmetic" k2="-1" k3="1"/>
<feColorMatrix type="matrix" values="0 0 0 0 1 0 0 0 0 1 0 0 0 0 1 0 0 0 0.21 0"/>
<feBlend mode="normal" in2="shape" result="effect2_innerShadow_285_660"/>
</filter>
<filter id="filter2_di_285_660" x="105.846" y="87.4434" width="47.167" height="52.6111" filterUnits="userSpaceOnUse" color-interpolation-filters="sRGB">
<feFlood flood-opacity="0" result="BackgroundImageFix"/>
<feColorMatrix in="SourceAlpha" type="matrix" values="0 0 0 0 0 0 0 0 0 0 0 0 0 0 0 0 0 0 127 0" result="hardAlpha"/>
<feOffset dy="20"/>
<feGaussianBlur stdDeviation="9.5"/>
<feComposite in2="hardAlpha" operator="out"/>
<feColorMatrix type="matrix" values="0 0 0 0 0.283785 0 0 0 0 0.178889 0 0 0 0 0.933333 0 0 0 1 0"/>
<feBlend mode="normal" in2="BackgroundImageFix" result="effect1_dropShadow_285_660"/>
<feBlend mode="normal" in="SourceGraphic" in2="effect1_dropShadow_285_660" result="shape"/>
<feColorMatrix in="SourceAlpha" type="matrix" values="0 0 0 0 0 0 0 0 0 0 0 0 0 0 0 0 0 0 127 0" result="hardAlpha"/>
<feOffset dy="9"/>
<feGaussianBlur stdDeviation="1.5"/>
<feComposite in2="hardAlpha" operator="arithmetic" k2="-1" k3="1"/>
<feColorMatrix type="matrix" values="0 0 0 0 1 0 0 0 0 1 0 0 0 0 1 0 0 0 0.21 0"/>
<feBlend mode="normal" in2="shape" result="effect2_innerShadow_285_660"/>
</filter>
<filter id="filter3_f_285_660" x="0.735352" y="0.276489" width="222.667" height="165.722" filterUnits="userSpaceOnUse" color-interpolation-filters="sRGB">
<feFlood flood-opacity="0" result="BackgroundImageFix"/>
<feBlend mode="normal" in="SourceGraphic" in2="BackgroundImageFix" result="shape"/>
<feGaussianBlur stdDeviation="39" result="effect1_foregroundBlur_285_660"/>
</filter>
<filter id="filter4_b_285_660" x="41.1797" y="0.720947" width="141.223" height="105.779" filterUnits="userSpaceOnUse" color-interpolation-filters="sRGB">
<feFlood flood-opacity="0" result="BackgroundImageFix"/>
<feGaussianBlur in="BackgroundImageFix" stdDeviation="13.5"/>
<feComposite in2="SourceAlpha" operator="in" result="effect1_backgroundBlur_285_660"/>
<feBlend mode="normal" in="SourceGraphic" in2="effect1_backgroundBlur_285_660" result="shape"/>
</filter>
<filter id="filter5_i_285_660" x="68.1797" y="27.7209" width="87.2227" height="61.7786" filterUnits="userSpaceOnUse" color-interpolation-filters="sRGB">
<feFlood flood-opacity="0" result="BackgroundImageFix"/>
<feBlend mode="normal" in="SourceGraphic" in2="BackgroundImageFix" result="shape"/>
<feColorMatrix in="SourceAlpha" type="matrix" values="0 0 0 0 0 0 0 0 0 0 0 0 0 0 0 0 0 0 127 0" result="hardAlpha"/>
<feOffset dy="11"/>
<feGaussianBlur stdDeviation="5"/>
<feComposite in2="hardAlpha" operator="arithmetic" k2="-1" k3="1"/>
<feColorMatrix type="matrix" values="0 0 0 0 1 0 0 0 0 1 0 0 0 0 1 0 0 0 1 0"/>
<feBlend mode="normal" in2="shape" result="effect1_innerShadow_285_660"/>
</filter>
<filter id="filter6_i_285_660" x="68.1797" y="27.7209" width="87.2227" height="61.7786" filterUnits="userSpaceOnUse" color-interpolation-filters="sRGB">
<feFlood flood-opacity="0" result="BackgroundImageFix"/>
<feBlend mode="normal" in="SourceGraphic" in2="BackgroundImageFix" result="shape"/>
<feColorMatrix in="SourceAlpha" type="matrix" values="0 0 0 0 0 0 0 0 0 0 0 0 0 0 0 0 0 0 127 0" result="hardAlpha"/>
<feOffset dy="11"/>
<feGaussianBlur stdDeviation="5"/>
<feComposite in2="hardAlpha" operator="arithmetic" k2="-1" k3="1"/>
<feColorMatrix type="matrix" values="0 0 0 0 1 0 0 0 0 1 0 0 0 0 1 0 0 0 1 0"/>
<feBlend mode="normal" in2="shape" result="effect1_innerShadow_285_660"/>
</filter>
<linearGradient id="paint0_linear_285_660" x1="73.7278" y1="74.8764" x2="161.721" y2="9.07449" gradientUnits="userSpaceOnUse">
<stop stop-color="white"/>
<stop offset="1" stop-color="white" stop-opacity="0.58"/>
</linearGradient>
<linearGradient id="paint1_linear_285_660" x1="73.7278" y1="74.8764" x2="161.721" y2="9.07449" gradientUnits="userSpaceOnUse">
<stop stop-color="white"/>
<stop offset="1" stop-color="white" stop-opacity="0.58"/>
</linearGradient>
</defs>
</svg>
