<svg width="26" height="27" viewBox="0 0 26 27" fill="none" xmlns="http://www.w3.org/2000/svg">
<rect x="0.498047" y="0.246094" width="25" height="26" fill="#FF0000" fill-opacity="0.01"/>
<path fill-rule="evenodd" clip-rule="evenodd" d="M7.16442 4.57945C8.63938 2.78836 10.7831 1.91833 12.9978 1.97945C15.2124 1.91833 17.3561 2.78836 18.8311 4.57945C20.5042 5.99252 21.3713 8.18693 21.3311 10.6461C21.3297 16.8616 13.6205 24.0892 12.9978 24.5128C12.3838 24.1343 4.66586 17.5645 4.66442 10.6461C4.62421 8.18693 5.49129 5.99252 7.16442 4.57945ZM8.81431 9.77945C8.81431 12.3794 10.5176 14.1285 12.9978 14.1285C15.5102 14.1285 17.1811 12.4011 17.1811 9.77945C17.1811 7.18188 15.4933 5.44834 12.9978 5.44834C10.5022 5.44834 8.81431 7.17945 8.81431 9.77945Z" fill="#0E1D25"/>
<mask id="mask0_286_765" style="mask-type:luminance" maskUnits="userSpaceOnUse" x="4" y="1" width="18" height="24">
<path fill-rule="evenodd" clip-rule="evenodd" d="M7.16442 4.57945C8.63938 2.78836 10.7831 1.91833 12.9978 1.97945C15.2124 1.91833 17.3561 2.78836 18.8311 4.57945C20.5042 5.99252 21.3713 8.18693 21.3311 10.6461C21.3297 16.8616 13.6205 24.0892 12.9978 24.5128C12.3838 24.1343 4.66586 17.5645 4.66442 10.6461C4.62421 8.18693 5.49129 5.99252 7.16442 4.57945ZM8.81431 9.77945C8.81431 12.3794 10.5176 14.1285 12.9978 14.1285C15.5102 14.1285 17.1811 12.4011 17.1811 9.77945C17.1811 7.18188 15.4933 5.44834 12.9978 5.44834C10.5022 5.44834 8.81431 7.17945 8.81431 9.77945Z" fill="white"/>
</mask>
<g mask="url(#mask0_286_765)">
<rect x="0.498047" y="0.246094" width="25" height="26" fill="white"/>
</g>
</svg>
