<svg width="181" height="181" viewBox="0 0 181 181" fill="none" xmlns="http://www.w3.org/2000/svg">
<path fill-rule="evenodd" clip-rule="evenodd" d="M90.1797 180.952C139.885 180.952 180.18 140.658 180.18 90.9524C180.18 41.2468 139.885 0.952393 90.1797 0.952393C40.4741 0.952393 0.179688 41.2468 0.179688 90.9524C0.179688 140.658 40.4741 180.952 90.1797 180.952Z" fill="#50B6BB" fill-opacity="0.1"/>
<g filter="url(#filter0_d_213_674)">
<path fill-rule="evenodd" clip-rule="evenodd" d="M104.434 115.634C118.065 107.764 122.735 90.3336 114.865 76.7022C106.995 63.0709 89.565 58.4004 75.9337 66.2705C62.3023 74.1406 57.6319 91.5709 65.502 105.202C73.372 118.834 90.8023 123.504 104.434 115.634Z" fill="#50B6BB"/>
<path fill-rule="evenodd" clip-rule="evenodd" d="M104.434 115.634C118.065 107.764 122.735 90.3336 114.865 76.7022C106.995 63.0709 89.565 58.4004 75.9337 66.2705C62.3023 74.1406 57.6319 91.5709 65.502 105.202C73.372 118.834 90.8023 123.504 104.434 115.634Z" stroke="white" stroke-width="2"/>
</g>
<path d="M81.3626 77.3511L105.933 87.9358C106.443 88.1307 106.728 88.5172 106.789 89.0955C106.797 89.1678 106.794 89.2777 106.782 89.4252C106.746 89.7505 106.617 90.0234 106.396 90.2441C106.174 90.4647 105.911 90.591 105.607 90.623L93.2882 91.6217L91.2107 104.92C91.2441 105.238 91.1808 105.534 91.0206 105.806C90.8604 106.079 90.632 106.268 90.3352 106.372C90.0385 106.476 89.7449 106.478 89.4546 106.377C89.1642 106.276 88.9347 106.088 88.766 105.813L79.7741 79.4037C79.6575 79.2259 79.587 79.0214 79.5627 78.79C79.5217 78.3997 79.6189 78.0606 79.8544 77.7728C80.0253 77.5356 80.2499 77.3767 80.5281 77.2963C80.8064 77.2159 81.0845 77.2342 81.3626 77.3511Z" fill="white"/>
<defs>
<filter id="filter0_d_213_674" x="56.6787" y="59.4473" width="67.0098" height="67.01" filterUnits="userSpaceOnUse" color-interpolation-filters="sRGB">
<feFlood flood-opacity="0" result="BackgroundImageFix"/>
<feColorMatrix in="SourceAlpha" type="matrix" values="0 0 0 0 0 0 0 0 0 0 0 0 0 0 0 0 0 0 127 0" result="hardAlpha"/>
<feOffset dy="2"/>
<feGaussianBlur stdDeviation="2"/>
<feColorMatrix type="matrix" values="0 0 0 0 0 0 0 0 0 0 0 0 0 0 0 0 0 0 0.3 0"/>
<feBlend mode="normal" in2="BackgroundImageFix" result="effect1_dropShadow_213_674"/>
<feBlend mode="normal" in="SourceGraphic" in2="effect1_dropShadow_213_674" result="shape"/>
</filter>
</defs>
</svg>
