<svg width="188" height="131" viewBox="0 0 188 131" fill="none" xmlns="http://www.w3.org/2000/svg">
<g filter="url(#filter0_f_290_820)">
<rect x="60.6455" y="60.6931" width="66.6667" height="9.72222" rx="4.86111" fill="black"/>
</g>
<g filter="url(#filter1_b_290_820)">
<g filter="url(#filter2_i_290_820)">
<path d="M127.242 36.5288C127.465 35.2639 127.581 33.9626 127.581 32.6345C127.581 20.2098 117.415 10.1376 104.874 10.1376C95.5517 10.1376 87.5411 15.7041 84.0441 23.6656C81.2111 21.2422 77.535 19.7791 73.5177 19.7791C64.5602 19.7791 57.2987 27.0535 57.2987 36.0269C57.2987 36.5265 57.3212 37.0209 57.3653 37.5091C53.0569 39.6 50.0903 43.9871 50.0903 49.0608C50.0903 56.1606 55.8995 61.9161 63.0655 61.9161H124.337C131.503 61.9161 137.312 56.1606 137.312 49.0608C137.312 42.9504 133.01 37.8357 127.242 36.5288Z" fill="url(#paint0_linear_290_820)"/>
</g>
<g filter="url(#filter3_i_290_820)">
<path d="M127.242 36.5288C127.465 35.2639 127.581 33.9626 127.581 32.6345C127.581 20.2098 117.415 10.1376 104.874 10.1376C95.5517 10.1376 87.5411 15.7041 84.0441 23.6656C81.2111 21.2422 77.535 19.7791 73.5177 19.7791C64.5602 19.7791 57.2987 27.0535 57.2987 36.0269C57.2987 36.5265 57.3212 37.0209 57.3653 37.5091C53.0569 39.6 50.0903 43.9871 50.0903 49.0608C50.0903 56.1606 55.8995 61.9161 63.0655 61.9161H124.337C131.503 61.9161 137.312 56.1606 137.312 49.0608C137.312 42.9504 133.01 37.8357 127.242 36.5288Z" fill="url(#paint1_linear_290_820)"/>
</g>
</g>
<defs>
<filter id="filter0_f_290_820" x="0.645508" y="0.693115" width="186.667" height="129.722" filterUnits="userSpaceOnUse" color-interpolation-filters="sRGB">
<feFlood flood-opacity="0" result="BackgroundImageFix"/>
<feBlend mode="normal" in="SourceGraphic" in2="BackgroundImageFix" result="shape"/>
<feGaussianBlur stdDeviation="30" result="effect1_foregroundBlur_290_820"/>
</filter>
<filter id="filter1_b_290_820" x="23.0898" y="-16.8624" width="141.223" height="105.779" filterUnits="userSpaceOnUse" color-interpolation-filters="sRGB">
<feFlood flood-opacity="0" result="BackgroundImageFix"/>
<feGaussianBlur in="BackgroundImageFix" stdDeviation="13.5"/>
<feComposite in2="SourceAlpha" operator="in" result="effect1_backgroundBlur_290_820"/>
<feBlend mode="normal" in="SourceGraphic" in2="effect1_backgroundBlur_290_820" result="shape"/>
</filter>
<filter id="filter2_i_290_820" x="50.0898" y="10.1376" width="87.2227" height="61.7786" filterUnits="userSpaceOnUse" color-interpolation-filters="sRGB">
<feFlood flood-opacity="0" result="BackgroundImageFix"/>
<feBlend mode="normal" in="SourceGraphic" in2="BackgroundImageFix" result="shape"/>
<feColorMatrix in="SourceAlpha" type="matrix" values="0 0 0 0 0 0 0 0 0 0 0 0 0 0 0 0 0 0 127 0" result="hardAlpha"/>
<feOffset dy="11"/>
<feGaussianBlur stdDeviation="5"/>
<feComposite in2="hardAlpha" operator="arithmetic" k2="-1" k3="1"/>
<feColorMatrix type="matrix" values="0 0 0 0 1 0 0 0 0 1 0 0 0 0 1 0 0 0 1 0"/>
<feBlend mode="normal" in2="shape" result="effect1_innerShadow_290_820"/>
</filter>
<filter id="filter3_i_290_820" x="50.0898" y="10.1376" width="87.2227" height="61.7786" filterUnits="userSpaceOnUse" color-interpolation-filters="sRGB">
<feFlood flood-opacity="0" result="BackgroundImageFix"/>
<feBlend mode="normal" in="SourceGraphic" in2="BackgroundImageFix" result="shape"/>
<feColorMatrix in="SourceAlpha" type="matrix" values="0 0 0 0 0 0 0 0 0 0 0 0 0 0 0 0 0 0 127 0" result="hardAlpha"/>
<feOffset dy="11"/>
<feGaussianBlur stdDeviation="5"/>
<feComposite in2="hardAlpha" operator="arithmetic" k2="-1" k3="1"/>
<feColorMatrix type="matrix" values="0 0 0 0 1 0 0 0 0 1 0 0 0 0 1 0 0 0 1 0"/>
<feBlend mode="normal" in2="shape" result="effect1_innerShadow_290_820"/>
</filter>
<linearGradient id="paint0_linear_290_820" x1="55.638" y1="57.293" x2="143.631" y2="-8.50888" gradientUnits="userSpaceOnUse">
<stop stop-color="white"/>
<stop offset="1" stop-color="white" stop-opacity="0.58"/>
</linearGradient>
<linearGradient id="paint1_linear_290_820" x1="55.638" y1="57.293" x2="143.631" y2="-8.50888" gradientUnits="userSpaceOnUse">
<stop stop-color="white"/>
<stop offset="1" stop-color="#BFBFBF" stop-opacity="0.15"/>
</linearGradient>
</defs>
</svg>
